<svg width="16" height="16" viewBox="0 0 16 16" fill="none" xmlns="http://www.w3.org/2000/svg">
<g clip-path="url(#clip0_2043_219)">
<path d="M1.33325 10.3333V1.73325C1.33325 1.62717 1.37539 1.52542 1.45041 1.45041C1.52542 1.37539 1.62717 1.33325 1.73325 1.33325H14.2666C14.3727 1.33325 14.4744 1.37539 14.5494 1.45041C14.6244 1.52542 14.6666 1.62717 14.6666 1.73325V10.3333M1.33325 10.3333V11.5999C1.33325 11.706 1.37539 11.8077 1.45041 11.8828C1.52542 11.9578 1.62717 11.9999 1.73325 11.9999H14.2666C14.3727 11.9999 14.4744 11.9578 14.5494 11.8828C14.6244 11.8077 14.6666 11.706 14.6666 11.5999V10.3333M1.33325 10.3333H14.6666M5.99992 14.6666H6.99992M6.99992 14.6666V11.9999M6.99992 14.6666H8.99992M8.99992 14.6666H9.99992M8.99992 14.6666V11.9999" stroke="white" stroke-linecap="round" stroke-linejoin="round"/>
</g>
<defs>
<clipPath id="clip0_2043_219">
<rect width="16" height="16" fill="white"/>
</clipPath>
</defs>
</svg>
